# Blender 3.2.0
# www.blender.org
mtllib bricks.mtl
o Slab_1-col
v -2.000000 1.000000 -1.000000
v -2.000000 0.000000 -1.000000
v -2.000000 1.000000 1.000000
v -2.000000 0.000000 1.000000
v -4.000000 1.000000 -1.000000
v -4.000000 0.000000 -1.000000
v -4.000000 1.000000 1.000000
v -4.000000 0.000000 1.000000
vn -0.0000 1.0000 -0.0000
vn -0.0000 -0.0000 1.0000
vn -1.0000 -0.0000 -0.0000
vn -0.0000 -1.0000 -0.0000
vn 1.0000 -0.0000 -0.0000
vn -0.0000 -0.0000 -1.0000
vt 0.625000 0.500000
vt 0.375000 0.500000
vt 0.625000 0.750000
vt 0.375000 0.750000
vt 0.875000 0.500000
vt 0.625000 0.250000
vt 0.125000 0.500000
vt 0.375000 0.250000
vt 0.875000 0.750000
vt 0.625000 1.000000
vt 0.625000 0.000000
vt 0.375000 1.000000
vt 0.375000 0.000000
vt 0.125000 0.750000
s 0
usemtl Material
f 1/1/1 5/5/1 7/9/1 3/3/1
f 4/4/2 3/3/2 7/10/2 8/12/2
f 8/13/3 7/11/3 5/6/3 6/8/3
f 6/7/4 2/2/4 4/4/4 8/14/4
f 2/2/5 1/1/5 3/3/5 4/4/5
f 6/8/6 5/6/6 1/1/6 2/2/6
o cubeMain
v 1.000000 2.000000 -1.000000
v 1.000000 0.000000 -1.000000
v 1.000000 2.000000 1.000000
v 1.000000 0.000000 1.000000
v -1.000000 2.000000 -1.000000
v -1.000000 0.000000 -1.000000
v -1.000000 2.000000 1.000000
v -1.000000 0.000000 1.000000
vn -0.0000 1.0000 -0.0000
vn -0.0000 -0.0000 1.0000
vn -1.0000 -0.0000 -0.0000
vn -0.0000 -1.0000 -0.0000
vn 1.0000 -0.0000 -0.0000
vn -0.0000 -0.0000 -1.0000
vt 0.625000 0.500000
vt 0.375000 0.500000
vt 0.625000 0.750000
vt 0.375000 0.750000
vt 0.875000 0.500000
vt 0.625000 0.250000
vt 0.125000 0.500000
vt 0.375000 0.250000
vt 0.875000 0.750000
vt 0.625000 1.000000
vt 0.625000 0.000000
vt 0.375000 1.000000
vt 0.375000 0.000000
vt 0.125000 0.750000
s 0
usemtl Material
f 9/15/7 13/19/7 15/23/7 11/17/7
f 12/18/8 11/17/8 15/24/8 16/26/8
f 16/27/9 15/25/9 13/20/9 14/22/9
f 14/21/10 10/16/10 12/18/10 16/28/10
f 10/16/11 9/15/11 11/17/11 12/18/11
f 14/22/12 13/20/12 9/15/12 10/16/12
o wall_obstacle_1-col
v 0.500000 2.000000 -4.000000
v 0.500000 0.000000 -4.000000
v 0.500000 2.000000 -2.000000
v 0.500000 0.000000 -2.000000
v -0.500000 2.000000 -4.000000
v -0.500000 0.000000 -4.000000
v -0.500000 2.000000 -2.000000
v -0.500000 0.000000 -2.000000
vn -0.0000 1.0000 -0.0000
vn -0.0000 -0.0000 1.0000
vn -1.0000 -0.0000 -0.0000
vn -0.0000 -1.0000 -0.0000
vn 1.0000 -0.0000 -0.0000
vn -0.0000 -0.0000 -1.0000
vt 0.625000 0.500000
vt 0.375000 0.500000
vt 0.625000 0.750000
vt 0.375000 0.750000
vt 0.875000 0.500000
vt 0.625000 0.250000
vt 0.125000 0.500000
vt 0.375000 0.250000
vt 0.875000 0.750000
vt 0.625000 1.000000
vt 0.625000 0.000000
vt 0.375000 1.000000
vt 0.375000 0.000000
vt 0.125000 0.750000
s 0
usemtl Material
f 17/29/13 21/33/13 23/37/13 19/31/13
f 20/32/14 19/31/14 23/38/14 24/40/14
f 24/41/15 23/39/15 21/34/15 22/36/15
f 22/35/16 18/30/16 20/32/16 24/42/16
f 18/30/17 17/29/17 19/31/17 20/32/17
f 22/36/18 21/34/18 17/29/18 18/30/18
o ramp_1-col
v 0.999941 2.000000 2.006917
v 0.999941 0.000000 4.006917
v -1.000059 2.000000 2.006917
v -1.000059 0.000000 4.006917
v 0.999941 0.000000 2.006917
v -1.000059 0.000000 2.006917
vn -1.0000 -0.0000 -0.0000
vn -0.0000 -0.0000 -1.0000
vn -0.0000 -1.0000 -0.0000
vn -0.0000 0.7071 0.7071
vn 1.0000 -0.0000 -0.0000
vt 0.625000 0.250000
vt 0.625000 0.500000
vt 0.375000 0.500000
vt 0.625000 1.000000
vt 0.625000 0.000000
vt 0.625000 0.750000
vt 0.375000 0.750000
vt 0.125000 0.500000
vt 0.375000 0.250000
vt 0.375000 1.000000
vt 0.375000 0.000000
vt 0.125000 0.750000
s 0
usemtl Material
f 28/49/19 27/46/19 30/52/19
f 30/53/20 27/47/20 25/43/20 29/51/20
f 29/50/21 26/45/21 28/49/21 30/54/21
f 26/45/22 25/44/22 27/48/22 28/49/22
f 29/51/23 25/44/23 26/45/23
o ramp_3-col
v 0.999941 1.000000 7.006917
v 0.999941 0.000000 9.006917
v -1.000059 1.000000 7.006917
v -1.000059 0.000000 9.006917
v 0.999941 0.000000 7.006917
v -1.000059 0.000000 7.006917
vn -1.0000 -0.0000 -0.0000
vn -0.0000 -0.0000 -1.0000
vn -0.0000 -1.0000 -0.0000
vn -0.0000 0.8944 0.4472
vn 1.0000 -0.0000 -0.0000
vt 0.625000 0.250000
vt 0.625000 0.500000
vt 0.375000 0.500000
vt 0.625000 1.000000
vt 0.625000 0.000000
vt 0.625000 0.750000
vt 0.375000 0.750000
vt 0.125000 0.500000
vt 0.375000 0.250000
vt 0.375000 1.000000
vt 0.375000 0.000000
vt 0.125000 0.750000
s 0
usemtl Material
f 34/61/24 33/58/24 36/64/24
f 36/65/25 33/59/25 31/55/25 35/63/25
f 35/62/26 32/57/26 34/61/26 36/66/26
f 32/57/27 31/56/27 33/60/27 34/61/27
f 35/63/28 31/56/28 32/57/28
o ramp_4-col
v 0.999941 1.000000 10.006917
v 0.999941 0.000000 11.006917
v -1.000059 1.000000 10.006917
v -1.000059 0.000000 11.006917
v 0.999941 0.000000 10.006917
v -1.000059 0.000000 10.006917
vn -1.0000 -0.0000 -0.0000
vn -0.0000 -0.0000 -1.0000
vn -0.0000 -1.0000 -0.0000
vn -0.0000 0.7071 0.7071
vn 1.0000 -0.0000 -0.0000
vt 0.625000 0.250000
vt 0.625000 0.500000
vt 0.375000 0.500000
vt 0.625000 1.000000
vt 0.625000 0.000000
vt 0.625000 0.750000
vt 0.375000 0.750000
vt 0.125000 0.500000
vt 0.375000 0.250000
vt 0.375000 1.000000
vt 0.375000 0.000000
vt 0.125000 0.750000
s 0
usemtl Material
f 40/73/29 39/70/29 42/76/29
f 42/77/30 39/71/30 37/67/30 41/75/30
f 41/74/31 38/69/31 40/73/31 42/78/31
f 38/69/32 37/68/32 39/72/32 40/73/32
f 41/75/33 37/68/33 38/69/33
o ramp_2-col
v 0.999941 2.000000 5.006917
v 0.999941 0.000000 6.006917
v -1.000059 2.000000 5.006917
v -1.000059 0.000000 6.006917
v 0.999941 0.000000 5.006917
v -1.000059 0.000000 5.006917
vn -1.0000 -0.0000 -0.0000
vn -0.0000 -0.0000 -1.0000
vn -0.0000 -1.0000 -0.0000
vn -0.0000 0.4472 0.8944
vn 1.0000 -0.0000 -0.0000
vt 0.625000 0.250000
vt 0.625000 0.500000
vt 0.375000 0.500000
vt 0.625000 1.000000
vt 0.625000 0.000000
vt 0.625000 0.750000
vt 0.375000 0.750000
vt 0.125000 0.500000
vt 0.375000 0.250000
vt 0.375000 1.000000
vt 0.375000 0.000000
vt 0.125000 0.750000
s 0
usemtl Material
f 46/85/34 45/82/34 48/88/34
f 48/89/35 45/83/35 43/79/35 47/87/35
f 47/86/36 44/81/36 46/85/36 48/90/36
f 44/81/37 43/80/37 45/84/37 46/85/37
f 47/87/38 43/80/38 44/81/38
o slab_2-col
v -5.000000 0.500000 -1.000000
v -5.000000 0.000000 -1.000000
v -5.000000 0.500000 1.000000
v -5.000000 0.000000 1.000000
v -7.000000 0.500000 -1.000000
v -7.000000 0.000000 -1.000000
v -7.000000 0.500000 1.000000
v -7.000000 0.000000 1.000000
vn -0.0000 1.0000 -0.0000
vn -0.0000 -0.0000 1.0000
vn -1.0000 -0.0000 -0.0000
vn -0.0000 -1.0000 -0.0000
vn 1.0000 -0.0000 -0.0000
vn -0.0000 -0.0000 -1.0000
vt 0.625000 0.500000
vt 0.375000 0.500000
vt 0.625000 0.750000
vt 0.375000 0.750000
vt 0.875000 0.500000
vt 0.625000 0.250000
vt 0.125000 0.500000
vt 0.375000 0.250000
vt 0.875000 0.750000
vt 0.625000 1.000000
vt 0.625000 0.000000
vt 0.375000 1.000000
vt 0.375000 0.000000
vt 0.125000 0.750000
s 0
usemtl Material
f 49/91/39 53/95/39 55/99/39 51/93/39
f 52/94/40 51/93/40 55/100/40 56/102/40
f 56/103/41 55/101/41 53/96/41 54/98/41
f 54/97/42 50/92/42 52/94/42 56/104/42
f 50/92/43 49/91/43 51/93/43 52/94/43
f 54/98/44 53/96/44 49/91/44 50/92/44
o wall_obstacle_2-col
v 0.500000 1.000000 -7.000000
v 0.500000 0.000000 -7.000000
v 0.500000 1.000000 -5.000000
v 0.500000 0.000000 -5.000000
v -0.500000 1.000000 -7.000000
v -0.500000 0.000000 -7.000000
v -0.500000 1.000000 -5.000000
v -0.500000 0.000000 -5.000000
vn -0.0000 1.0000 -0.0000
vn -0.0000 -0.0000 1.0000
vn -1.0000 -0.0000 -0.0000
vn -0.0000 -1.0000 -0.0000
vn 1.0000 -0.0000 -0.0000
vn -0.0000 -0.0000 -1.0000
vt 0.625000 0.500000
vt 0.375000 0.500000
vt 0.625000 0.750000
vt 0.375000 0.750000
vt 0.875000 0.500000
vt 0.625000 0.250000
vt 0.125000 0.500000
vt 0.375000 0.250000
vt 0.875000 0.750000
vt 0.625000 1.000000
vt 0.625000 0.000000
vt 0.375000 1.000000
vt 0.375000 0.000000
vt 0.125000 0.750000
s 0
usemtl Material
f 57/105/45 61/109/45 63/113/45 59/107/45
f 60/108/46 59/107/46 63/114/46 64/116/46
f 64/117/47 63/115/47 61/110/47 62/112/47
f 62/111/48 58/106/48 60/108/48 64/118/48
f 58/106/49 57/105/49 59/107/49 60/108/49
f 62/112/50 61/110/50 57/105/50 58/106/50
o wall_obstacle_3-col
v 0.250000 1.000000 -10.000000
v 0.250000 0.000000 -10.000000
v 0.250000 1.000000 -8.000000
v 0.250000 0.000000 -8.000000
v -0.250000 1.000000 -10.000000
v -0.250000 0.000000 -10.000000
v -0.250000 1.000000 -8.000000
v -0.250000 0.000000 -8.000000
vn -0.0000 1.0000 -0.0000
vn -0.0000 -0.0000 1.0000
vn -1.0000 -0.0000 -0.0000
vn -0.0000 -1.0000 -0.0000
vn 1.0000 -0.0000 -0.0000
vn -0.0000 -0.0000 -1.0000
vt 0.625000 0.500000
vt 0.375000 0.500000
vt 0.625000 0.750000
vt 0.375000 0.750000
vt 0.875000 0.500000
vt 0.625000 0.250000
vt 0.125000 0.500000
vt 0.375000 0.250000
vt 0.875000 0.750000
vt 0.625000 1.000000
vt 0.625000 0.000000
vt 0.375000 1.000000
vt 0.375000 0.000000
vt 0.125000 0.750000
s 0
usemtl Material
f 65/119/51 69/123/51 71/127/51 67/121/51
f 68/122/52 67/121/52 71/128/52 72/130/52
f 72/131/53 71/129/53 69/124/53 70/126/53
f 70/125/54 66/120/54 68/122/54 72/132/54
f 66/120/55 65/119/55 67/121/55 68/122/55
f 70/126/56 69/124/56 65/119/56 66/120/56
